<?xml version="1.0" encoding="utf-8"?>
<svg version="1.1" width="12px" height="12px" viewBox="382 274  12 12" xmlns:xlink="http://www.w3.org/1999/xlink" xmlns="http://www.w3.org/2000/svg">
  <path d="M 388 274  C 391.36 274  394 276.64  394 280  C 394 283.36  391.36 286  388 286  C 384.64 286  382 283.36  382 280  C 382 276.64  384.64 274  388 274  Z " fill-rule="nonzero" fill="#ffffff" stroke="none" />
  <path d="M 388 274.5  C 391.08 274.5  393.5 276.92  393.5 280  C 393.5 283.08  391.08 285.5  388 285.5  C 384.92 285.5  382.5 283.08  382.5 280  C 382.5 276.92  384.92 274.5  388 274.5  Z " stroke-width="1" stroke="#797979" fill="none" />
  <path d="M 388 283  C 386.32 283  385 281.68  385 280  C 385 278.32  386.32 277  388 277  C 389.68 277  391 278.32  391 280  C 391 281.68  389.68 283  388 283  " fill-rule="nonzero" fill="#797979" stroke="none" />
</svg>