<?xml version="1.0" encoding="utf-8"?>
<svg version="1.1" width="12px" height="12px" viewBox="382 310  12 12" xmlns:xlink="http://www.w3.org/1999/xlink" xmlns="http://www.w3.org/2000/svg">
  <path d="M 388 310  C 391.36 310  394 312.64  394 316  C 394 319.36  391.36 322  388 322  C 384.64 322  382 319.36  382 316  C 382 312.64  384.64 310  388 310  Z " fill-rule="nonzero" fill="#ffffff" stroke="none" />
  <path d="M 388 310.5  C 391.08 310.5  393.5 312.92  393.5 316  C 393.5 319.08  391.08 321.5  388 321.5  C 384.92 321.5  382.5 319.08  382.5 316  C 382.5 312.92  384.92 310.5  388 310.5  Z " stroke-width="1" stroke="#797979" fill="none" />
  <path d="M 388 319  C 386.32 319  385 317.68  385 316  C 385 314.32  386.32 313  388 313  C 389.68 313  391 314.32  391 316  C 391 317.68  389.68 319  388 319  " fill-rule="nonzero" fill="#797979" stroke="none" />
</svg>