<?xml version="1.0" encoding="utf-8"?>
<svg version="1.1" width="12px" height="12px" viewBox="382 347  12 12" xmlns:xlink="http://www.w3.org/1999/xlink" xmlns="http://www.w3.org/2000/svg">
  <path d="M 388 347  C 391.36 347  394 349.64  394 353  C 394 356.36  391.36 359  388 359  C 384.64 359  382 356.36  382 353  C 382 349.64  384.64 347  388 347  Z " fill-rule="nonzero" fill="#ffffff" stroke="none" />
  <path d="M 388 347.5  C 391.08 347.5  393.5 349.92  393.5 353  C 393.5 356.08  391.08 358.5  388 358.5  C 384.92 358.5  382.5 356.08  382.5 353  C 382.5 349.92  384.92 347.5  388 347.5  Z " stroke-width="1" stroke="#797979" fill="none" />
  <path d="M 388 356  C 386.32 356  385 354.68  385 353  C 385 351.32  386.32 350  388 350  C 389.68 350  391 351.32  391 353  C 391 354.68  389.68 356  388 356  " fill-rule="nonzero" fill="#797979" stroke="none" />
</svg>