<?xml version="1.0" encoding="utf-8"?>
<svg version="1.1" width="12px" height="12px" viewBox="382 383  12 12" xmlns:xlink="http://www.w3.org/1999/xlink" xmlns="http://www.w3.org/2000/svg">
  <path d="M 388 383  C 391.36 383  394 385.64  394 389  C 394 392.36  391.36 395  388 395  C 384.64 395  382 392.36  382 389  C 382 385.64  384.64 383  388 383  Z " fill-rule="nonzero" fill="#ffffff" stroke="none" />
  <path d="M 388 383.5  C 391.08 383.5  393.5 385.92  393.5 389  C 393.5 392.08  391.08 394.5  388 394.5  C 384.92 394.5  382.5 392.08  382.5 389  C 382.5 385.92  384.92 383.5  388 383.5  Z " stroke-width="1" stroke="#797979" fill="none" />
  <path d="M 388 392  C 386.32 392  385 390.68  385 389  C 385 387.32  386.32 386  388 386  C 389.68 386  391 387.32  391 389  C 391 390.68  389.68 392  388 392  " fill-rule="nonzero" fill="#797979" stroke="none" />
</svg>