<?xml version="1.0" encoding="utf-8"?>
<svg version="1.1" width="12px" height="12px" viewBox="382 423  12 12" xmlns:xlink="http://www.w3.org/1999/xlink" xmlns="http://www.w3.org/2000/svg">
  <path d="M 388 423  C 391.36 423  394 425.64  394 429  C 394 432.36  391.36 435  388 435  C 384.64 435  382 432.36  382 429  C 382 425.64  384.64 423  388 423  Z " fill-rule="nonzero" fill="#ffffff" stroke="none" />
  <path d="M 388 423.5  C 391.08 423.5  393.5 425.92  393.5 429  C 393.5 432.08  391.08 434.5  388 434.5  C 384.92 434.5  382.5 432.08  382.5 429  C 382.5 425.92  384.92 423.5  388 423.5  Z " stroke-width="1" stroke="#797979" fill="none" />
  <path d="M 388 432  C 386.32 432  385 430.68  385 429  C 385 427.32  386.32 426  388 426  C 389.68 426  391 427.32  391 429  C 391 430.68  389.68 432  388 432  " fill-rule="nonzero" fill="#797979" stroke="none" />
</svg>