<?xml version="1.0" encoding="utf-8"?>
<svg version="1.1" width="12px" height="12px" viewBox="382 460  12 12" xmlns:xlink="http://www.w3.org/1999/xlink" xmlns="http://www.w3.org/2000/svg">
  <path d="M 388 460  C 391.36 460  394 462.64  394 466  C 394 469.36  391.36 472  388 472  C 384.64 472  382 469.36  382 466  C 382 462.64  384.64 460  388 460  Z " fill-rule="nonzero" fill="#ffffff" stroke="none" />
  <path d="M 388 460.5  C 391.08 460.5  393.5 462.92  393.5 466  C 393.5 469.08  391.08 471.5  388 471.5  C 384.92 471.5  382.5 469.08  382.5 466  C 382.5 462.92  384.92 460.5  388 460.5  Z " stroke-width="1" stroke="#797979" fill="none" />
  <path d="M 388 469  C 386.32 469  385 467.68  385 466  C 385 464.32  386.32 463  388 463  C 389.68 463  391 464.32  391 466  C 391 467.68  389.68 469  388 469  " fill-rule="nonzero" fill="#797979" stroke="none" />
</svg>