<?xml version="1.0" encoding="utf-8"?>
<svg version="1.1" width="12px" height="12px" viewBox="382 496  12 12" xmlns:xlink="http://www.w3.org/1999/xlink" xmlns="http://www.w3.org/2000/svg">
  <path d="M 388 496  C 391.36 496  394 498.64  394 502  C 394 505.36  391.36 508  388 508  C 384.64 508  382 505.36  382 502  C 382 498.64  384.64 496  388 496  Z " fill-rule="nonzero" fill="#ffffff" stroke="none" />
  <path d="M 388 496.5  C 391.08 496.5  393.5 498.92  393.5 502  C 393.5 505.08  391.08 507.5  388 507.5  C 384.92 507.5  382.5 505.08  382.5 502  C 382.5 498.92  384.92 496.5  388 496.5  Z " stroke-width="1" stroke="#797979" fill="none" />
  <path d="M 388 505  C 386.32 505  385 503.68  385 502  C 385 500.32  386.32 499  388 499  C 389.68 499  391 500.32  391 502  C 391 503.68  389.68 505  388 505  " fill-rule="nonzero" fill="#797979" stroke="none" />
</svg>