<?xml version="1.0" encoding="utf-8"?>
<svg version="1.1" width="12px" height="12px" viewBox="266 363  12 12" xmlns:xlink="http://www.w3.org/1999/xlink" xmlns="http://www.w3.org/2000/svg">
  <path d="M 272 363  C 275.36 363  278 365.64  278 369  C 278 372.36  275.36 375  272 375  C 268.64 375  266 372.36  266 369  C 266 365.64  268.64 363  272 363  Z " fill-rule="nonzero" fill="#ffffff" stroke="none" />
  <path d="M 272 363.5  C 275.08 363.5  277.5 365.92  277.5 369  C 277.5 372.08  275.08 374.5  272 374.5  C 268.92 374.5  266.5 372.08  266.5 369  C 266.5 365.92  268.92 363.5  272 363.5  Z " stroke-width="1" stroke="#797979" fill="none" />
  <path d="M 272 372  C 270.32 372  269 370.68  269 369  C 269 367.32  270.32 366  272 366  C 273.68 366  275 367.32  275 369  C 275 370.68  273.68 372  272 372  " fill-rule="nonzero" fill="#797979" stroke="none" />
</svg>