<?xml version="1.0" encoding="utf-8"?>
<svg version="1.1" width="12px" height="12px" viewBox="282 212  12 12" xmlns:xlink="http://www.w3.org/1999/xlink" xmlns="http://www.w3.org/2000/svg">
  <path d="M 288 212  C 291.36 212  294 214.64  294 218  C 294 221.36  291.36 224  288 224  C 284.64 224  282 221.36  282 218  C 282 214.64  284.64 212  288 212  Z " fill-rule="nonzero" fill="#ffffff" stroke="none" />
  <path d="M 288 212.5  C 291.08 212.5  293.5 214.92  293.5 218  C 293.5 221.08  291.08 223.5  288 223.5  C 284.92 223.5  282.5 221.08  282.5 218  C 282.5 214.92  284.92 212.5  288 212.5  Z " stroke-width="1" stroke="#797979" fill="none" />
  <path d="M 288 221  C 286.32 221  285 219.68  285 218  C 285 216.32  286.32 215  288 215  C 289.68 215  291 216.32  291 218  C 291 219.68  289.68 221  288 221  " fill-rule="nonzero" fill="#797979" stroke="none" />
</svg>